# xmcd
#
# Track frame offsets: 
#        150
#        22840
#        26146
#        54039
#        61803
#        85720
#        107970
#        148456
#        153787
#        185941
#        220681
#        250970
#        255154
#        267180
#
# Disc length: 4013 seconds
#
# Revision: 1
# Processed by: cddbd v1.5.2PL0 Copyright (c) Steve Scherf et al.
# Submitted via: ExactAudioCopy v1.1
#
DISCID=b90fab0e
DTITLE=King Crimson - The Elements 2014 Tour Box [CD2]
DYEAR=2014
DGENRE=Progressive Rock
TTITLE0=Discipline
TTITLE1=Three Headed Doom (Part 1)
TTITLE2=Neurotica (Manhattan) (Live)
TTITLE3=Neal And Jack And Me (Extract)
TTITLE4=Sleepless
TTITLE5=Sex Sleep Eat Drink Dream (Recording Session)
TTITLE6=THRAK (Live)
TTITLE7=Venturing Unto Joy (Edit)
TTITLE8=The Deception Of The Thrush (Live)
TTITLE9=Heaven and Earth (Early Edit)
TTITLE10=Level Five (Live)
TTITLE11=The Hell Hounds Of Krim
TTITLE12=Separation (Edit)
TTITLE13=A Scarcity Of Miracles
EXTD=
EXTT0=
EXTT1=
EXTT2=
EXTT3=
EXTT4=
EXTT5=
EXTT6=
EXTT7=
EXTT8=
EXTT9=
EXTT10=
EXTT11=
EXTT12=
EXTT13=
PLAYORDER=
